<?xml version="1.0" encoding="UTF-8" standalone="no"?>
<!-- Created with Inkscape (http://www.inkscape.org/) -->

<svg
   width="53.287083mm"
   height="27.860624mm"
   viewBox="0 0 53.287083 27.860624"
   version="1.1"
   id="svg1"
   inkscape:version="1.4 (e7c3feb100, 2024-10-09)"
   sodipodi:docname="magnet.svg"
   xmlns:inkscape="http://www.inkscape.org/namespaces/inkscape"
   xmlns:sodipodi="http://sodipodi.sourceforge.net/DTD/sodipodi-0.dtd"
   xmlns="http://www.w3.org/2000/svg"
   xmlns:svg="http://www.w3.org/2000/svg">
  <sodipodi:namedview
     id="namedview1"
     pagecolor="#ffffff"
     bordercolor="#000000"
     borderopacity="0.25"
     inkscape:showpageshadow="2"
     inkscape:pageopacity="0.0"
     inkscape:pagecheckerboard="0"
     inkscape:deskcolor="#d1d1d1"
     inkscape:document-units="mm"
     inkscape:zoom="0.70644641"
     inkscape:cx="44.58937"
     inkscape:cy="108.28847"
     inkscape:window-width="1920"
     inkscape:window-height="1002"
     inkscape:window-x="0"
     inkscape:window-y="0"
     inkscape:window-maximized="1"
     inkscape:current-layer="layer1" />
  <defs
     id="defs1">
    <clipPath
       id="SVGID_144_">
							<rect
   id="use97"
   x="306.89999"
   y="650.29999"
   width="219.39999"
   height="113.4" />

						</clipPath>
  </defs>
  <g
     inkscape:label="Layer 1"
     inkscape:groupmode="layer"
     id="layer1"
     transform="translate(-93.106874,-119.67104)">
    <path
       style="fill:#dc463b"
       d="m 316,657.3 c 0,0.7 -0.1,1.4 -0.1,2 0,57.1 45.1,103.3 100.7,103.3 55.6,0 100.7,-46.3 100.7,-103.3 0,-0.7 0,-1.4 0,-2 h -55.2 c 0,0.7 0.1,1.4 0.1,2 0,26.2 -20.4,47.5 -45.6,47.5 -25.2,0 -45.6,-21.2 -45.6,-47.5 0,-0.7 0.1,-1.4 0.1,-2 z"
       clip-path="url(#SVGID_144_)"
       id="path97"
       transform="matrix(0.26458333,0,0,0.26458333,9.525,-54.239583)" />
  </g>
</svg>
