<?xml version="1.0" encoding="UTF-8" standalone="no"?>
<!-- Created with Inkscape (http://www.inkscape.org/) -->

<svg
   width="47.861263mm"
   height="55.428345mm"
   viewBox="0 0 47.861263 55.428345"
   version="1.1"
   id="svg1"
   inkscape:version="1.4 (e7c3feb100, 2024-10-09)"
   sodipodi:docname="thev.svg"
   xmlns:inkscape="http://www.inkscape.org/namespaces/inkscape"
   xmlns:sodipodi="http://sodipodi.sourceforge.net/DTD/sodipodi-0.dtd"
   xmlns="http://www.w3.org/2000/svg"
   xmlns:svg="http://www.w3.org/2000/svg">
  <sodipodi:namedview
     id="namedview1"
     pagecolor="#ffffff"
     bordercolor="#000000"
     borderopacity="0.25"
     inkscape:showpageshadow="2"
     inkscape:pageopacity="0.0"
     inkscape:pagecheckerboard="0"
     inkscape:deskcolor="#d1d1d1"
     inkscape:document-units="mm"
     inkscape:zoom="0.70644641"
     inkscape:cx="52.374815"
     inkscape:cy="119.61275"
     inkscape:window-width="1920"
     inkscape:window-height="1002"
     inkscape:window-x="0"
     inkscape:window-y="0"
     inkscape:window-maximized="1"
     inkscape:current-layer="layer1" />
  <defs
     id="defs1">
    <clipPath
       id="SVGID_61_">
      <rect
         id="use45"
         x="1431.6"
         y="108.9"
         width="206.3"
         height="245"
         mask="url(#SVGID_58_)"
         clip-path="url(#SVGID_26_)" />
    </clipPath>
    <clipPath
       id="SVGID_26_">
      <rect
         id="use20"
         width="1920"
         height="1080"
         clip-path="url(#SVGID_24_)"
         x="0"
         y="0" />
    </clipPath>
    <clipPath
       id="SVGID_56_">
      <rect
         id="use42"
         x="1582"
         y="143.5"
         width="51.200001"
         height="200.10001"
         mask="url(#SVGID_54_)"
         clip-path="url(#SVGID_26_)" />
    </clipPath>
    <clipPath
       id="clipPath1">
      <rect
         id="rect1"
         width="1920"
         height="1080"
         clip-path="url(#SVGID_24_)"
         x="0"
         y="0" />
    </clipPath>
  </defs>
  <g
     inkscape:label="Layer 1"
     inkscape:groupmode="layer"
     id="layer1"
     transform="translate(-91.016669,-116.94584)">
    <path
       style="fill:#00c18d"
       d="m 1589.4,313.8 c -0.1,11.2 8.8,20.4 20,20.5 11.2,0.1 20.4,-8.8 20.5,-20 l 1.8,-140.9 c 0.1,-11.2 -8.8,-20.4 -20,-20.5 -11.2,-0.1 -20.4,8.8 -20.5,20 z"
       clip-path="url(#SVGID_56_)"
       id="path42"
       mask="url(#SVGID_54_)"
       transform="matrix(0.26458333,0,0,0.26458333,-292.84291,83.923753)" />
    <path
       style="fill:#0079a8"
       d="m 1587.1,326.5 c 6.9,8.8 19.6,10.4 28.5,3.5 8.8,-6.9 10.4,-19.6 3.5,-28.5 l -132,-168.9 c -6.9,-8.8 -19.6,-10.4 -28.5,-3.5 -8.8,6.9 -10.4,19.6 -3.5,28.5 z"
       clip-path="url(#SVGID_61_)"
       id="path45"
       mask="url(#SVGID_58_)"
       transform="matrix(0.26458333,0,0,0.26458333,-292.84291,83.923753)" />
  </g>
</svg>
