<?xml version="1.0" encoding="UTF-8" standalone="no"?>
<!-- Created with Inkscape (http://www.inkscape.org/) -->

<svg
   width="30.493395mm"
   height="102.61405mm"
   viewBox="0 0 30.493395 102.61405"
   version="1.1"
   id="svg1"
   inkscape:version="1.4 (e7c3feb100, 2024-10-09)"
   sodipodi:docname="vline.svg"
   xmlns:inkscape="http://www.inkscape.org/namespaces/inkscape"
   xmlns:sodipodi="http://sodipodi.sourceforge.net/DTD/sodipodi-0.dtd"
   xmlns="http://www.w3.org/2000/svg"
   xmlns:svg="http://www.w3.org/2000/svg">
  <sodipodi:namedview
     id="namedview1"
     pagecolor="#ffffff"
     bordercolor="#000000"
     borderopacity="0.25"
     inkscape:showpageshadow="2"
     inkscape:pageopacity="0.0"
     inkscape:pagecheckerboard="0"
     inkscape:deskcolor="#d1d1d1"
     inkscape:document-units="mm"
     inkscape:zoom="0.70644641"
     inkscape:cx="-195.3439"
     inkscape:cy="119.61275"
     inkscape:window-width="1920"
     inkscape:window-height="1002"
     inkscape:window-x="0"
     inkscape:window-y="0"
     inkscape:window-maximized="1"
     inkscape:current-layer="layer1" />
  <defs
     id="defs1">
    <clipPath
       id="SVGID_26_">
      <rect
         id="use20"
         width="1920"
         height="1080"
         clip-path="url(#SVGID_24_)"
         x="0"
         y="0" />
    </clipPath>
    <clipPath
       id="SVGID_30_">
      <rect
         id="use24"
         x="363.60001"
         y="481.89999"
         width="69.099998"
         height="59.099998"
         mask="url(#SVGID_28_)"
         clip-path="url(#SVGID_26_)" />
    </clipPath>
    <clipPath
       id="clipPath1">
      <rect
         id="rect1"
         width="1920"
         height="1080"
         clip-path="url(#SVGID_24_)"
         x="0"
         y="0" />
    </clipPath>
  </defs>
  <g
     inkscape:label="Layer 1"
     inkscape:groupmode="layer"
     id="layer1"
     transform="translate(-156.63333,-116.94583)">
    <path
       style="fill:#00c18d"
       d="m 421.5,524.8 c -5.7,12.9 -20.8,18.7 -33.7,13 -12.9,-5.7 -18.7,-20.8 -13,-33.7 5.7,-12.9 20.8,-18.7 33.7,-13 12.9,5.7 18.7,20.8 13,33.7"
       clip-path="url(#SVGID_30_)"
       id="path24"
       mask="url(#SVGID_28_)"
       transform="matrix(0.26458333,0,0,0.26458333,67.206795,64.38409)" />
    <path
       style="fill:none;stroke:#0079a8;stroke-width:2.878;stroke-miterlimit:10"
       d="m 50.2,276.8 c 30.9,4.2 53.9,30.4 70.2,57 30.42497,49.7957 46.81484,107.54285 48.82504,165.77104 C 171.1064,554.06738 160.39222,608.98509 136.8,658.2"
       clip-path="url(#SVGID_26_)"
       id="path52"
       transform="matrix(0.24445878,0.10121385,-0.10121385,0.24445878,190.06458,44.527662)"
       sodipodi:nodetypes="ccsc" />
  </g>
</svg>
