<?xml version="1.0" encoding="UTF-8" standalone="no"?>
<!-- Created with Inkscape (http://www.inkscape.org/) -->

<svg
   width="6.8351173mm"
   height="37.382362mm"
   viewBox="0 0 6.8351173 37.382362"
   version="1.1"
   id="svg1"
   inkscape:version="1.4 (e7c3feb100, 2024-10-09)"
   sodipodi:docname="vstar.svg"
   xmlns:inkscape="http://www.inkscape.org/namespaces/inkscape"
   xmlns:sodipodi="http://sodipodi.sourceforge.net/DTD/sodipodi-0.dtd"
   xmlns="http://www.w3.org/2000/svg"
   xmlns:svg="http://www.w3.org/2000/svg">
  <sodipodi:namedview
     id="namedview1"
     pagecolor="#ffffff"
     bordercolor="#000000"
     borderopacity="0.25"
     inkscape:showpageshadow="2"
     inkscape:pageopacity="0.0"
     inkscape:pagecheckerboard="0"
     inkscape:deskcolor="#d1d1d1"
     inkscape:document-units="mm"
     inkscape:zoom="0.70644641"
     inkscape:cx="66.53017"
     inkscape:cy="169.1565"
     inkscape:window-width="1920"
     inkscape:window-height="1002"
     inkscape:window-x="0"
     inkscape:window-y="0"
     inkscape:window-maximized="1"
     inkscape:current-layer="layer1" />
  <defs
     id="defs1">
    <clipPath
       id="SVGID_150_">
      <rect
         id="use106"
         width="1920"
         height="1080"
         x="0"
         y="0" />
    </clipPath>
    <clipPath
       id="clipPath1">
      <rect
         id="rect1"
         width="1920"
         height="1080"
         x="0"
         y="0" />
    </clipPath>
  </defs>
  <g
     inkscape:label="Layer 1"
     inkscape:groupmode="layer"
     id="layer1"
     transform="translate(-87.312502,-103.71666)">
    <path
       class="st164"
       d="m 1711,442.8 -3.8,-100 c 0,-7.8 11.2,-8.3 11.8,-0.4 0.1,0.2 -3.8,100.1 -3.8,100.4 0,2.7 -4,2.8 -4.2,0"
       clip-path="url(#SVGID_150_)"
       id="path132"
       style="fill:#00c18d"
       transform="matrix(0.26458333,0,0,0.26458333,-362.5541,23.395777)" />
    <path
       class="st164"
       d="m 1713.9,304.1 2.5,7.7 c 0.1,0.3 0.4,0.6 0.8,0.6 h 8.1 c 0.8,0 1.1,1 0.5,1.5 l -6.5,4.7 c -0.3,0.2 -0.4,0.6 -0.3,0.9 l 2.5,7.7 c 0.2,0.8 -0.6,1.4 -1.3,0.9 l -6.5,-4.7 c -0.3,-0.2 -0.7,-0.2 -1,0 l -6.5,4.7 c -0.6,0.5 -1.5,-0.2 -1.3,-0.9 l 2.5,-7.7 c 0.1,-0.3 0,-0.7 -0.3,-0.9 l -6.5,-4.7 c -0.6,-0.5 -0.3,-1.5 0.5,-1.5 h 8.1 c 0.4,0 0.7,-0.2 0.8,-0.6 l 2.5,-7.7 c 0.1,-0.7 1.2,-0.7 1.4,0"
       clip-path="url(#SVGID_150_)"
       id="path136"
       style="fill:#00c18d"
       transform="matrix(0.26458333,0,0,0.26458333,-362.5541,23.395777)" />
  </g>
</svg>
